<?xml version="1.0" encoding="UTF-8"?>
<!DOCTYPE svg PUBLIC "-//W3C//DTD SVG 1.1//EN" "http://www.w3.org/Graphics/SVG/1.1/DTD/svg11.dtd">
<svg xmlns="http://www.w3.org/2000/svg" version="1.1" width="2245px" height="1587px" style="shape-rendering:geometricPrecision; text-rendering:geometricPrecision; image-rendering:optimizeQuality; fill-rule:evenodd; clip-rule:evenodd" xmlns:xlink="http://www.w3.org/1999/xlink">
<g><path style="opacity:1" fill="#fefefe" d="M -0.5,-0.5 C 747.833,-0.5 1496.17,-0.5 2244.5,-0.5C 2244.5,528.5 2244.5,1057.5 2244.5,1586.5C 1496.17,1586.5 747.833,1586.5 -0.5,1586.5C -0.5,1057.5 -0.5,528.5 -0.5,-0.5 Z"/></g>
<g><path style="opacity:1" fill="#000000" d="M 1664.5,703.5 C 1664.5,690.833 1664.5,678.167 1664.5,665.5C 1641.5,665.5 1618.5,665.5 1595.5,665.5C 1557.14,662.236 1529.64,643.236 1513,608.5C 1509.41,599.478 1507.08,590.145 1506,580.5C 1505.04,528.144 1505.37,475.811 1507,423.5C 1518.66,381.173 1546.16,356.339 1589.5,349C 1614.5,348.5 1639.5,348.333 1664.5,348.5C 1664.33,311.832 1664.5,275.165 1665,238.5C 1671.73,203.885 1691.23,179.385 1723.5,165C 1730.46,162.845 1737.46,160.845 1744.5,159C 1795.83,158.333 1847.17,158.333 1898.5,159C 1946.96,168.454 1974.46,197.621 1981,246.5C 1981.5,259.496 1981.67,272.496 1981.5,285.5C 2007.19,285.194 2032.85,285.527 2058.5,286.5C 2097.05,293.551 2122.88,315.551 2136,352.5C 2137.61,359.446 2138.94,366.446 2140,373.5C 2140.67,419.833 2140.67,466.167 2140,512.5C 2134.92,558.572 2110.09,587.738 2065.5,600C 2062.09,600.297 2058.75,600.964 2055.5,602C 2030.84,602.5 2006.17,602.667 1981.5,602.5C 1981.67,638.168 1981.5,673.835 1981,709.5C 1972.1,755.732 1944.6,783.232 1898.5,792C 1847.5,792.667 1796.5,792.667 1745.5,792C 1697.12,782.067 1670.12,752.567 1664.5,703.5 Z"/></g>
<g><path style="opacity:1" fill="#010101" d="M 277.5,214.5 C 442.834,214.333 608.167,214.5 773.5,215C 776,216.167 777.833,218 779,220.5C 779.667,413.167 779.667,605.833 779,798.5C 777.833,802.333 775.333,804.833 771.5,806C 760.172,806.5 748.838,806.667 737.5,806.5C 737.667,818.171 737.5,829.838 737,841.5C 735.5,844.333 733.333,846.5 730.5,848C 565.5,848.667 400.5,848.667 235.5,848C 233.714,847.215 232.214,846.049 231,844.5C 229.336,650.58 229.002,456.58 230,262.5C 231.167,260 233,258.167 235.5,257C 247.495,256.5 259.495,256.333 271.5,256.5C 271.333,244.495 271.5,232.495 272,220.5C 273.36,217.977 275.193,215.977 277.5,214.5 Z"/></g>
<g><path style="opacity:1" fill="#fdfdfd" d="M 1753.5,221.5 C 1799.17,221.333 1844.83,221.5 1890.5,222C 1905.63,225.127 1914.79,234.293 1918,249.5C 1918.67,305.167 1918.67,360.833 1918,416.5C 1915.45,430.045 1907.62,438.879 1894.5,443C 1844.2,444.31 1793.87,444.977 1743.5,445C 1701.11,454.386 1674.95,480.22 1665,522.5C 1664.5,549.165 1664.33,575.831 1664.5,602.5C 1640.83,602.667 1617.16,602.5 1593.5,602C 1579.34,598.173 1571.17,589.006 1569,574.5C 1568.33,528.833 1568.33,483.167 1569,437.5C 1572.51,424.658 1580.68,416.491 1593.5,413C 1671.17,412.667 1748.83,412.333 1826.5,412C 1848.3,406.575 1857.14,392.742 1853,370.5C 1848.09,358.593 1839.25,351.427 1826.5,349C 1793.5,348.5 1760.5,348.333 1727.5,348.5C 1727.33,314.498 1727.5,280.498 1728,246.5C 1731.76,233.236 1740.26,224.902 1753.5,221.5 Z"/></g>
<g><path style="opacity:1" fill="#fefefe" d="M 292.5,235.5 C 447.833,235.5 603.167,235.5 758.5,235.5C 758.5,418.833 758.5,602.167 758.5,785.5C 751.5,785.5 744.5,785.5 737.5,785.5C 737.667,646.833 737.5,508.166 737,369.5C 700.167,331.333 662.667,293.833 624.5,257C 513.834,256.5 403.167,256.333 292.5,256.5C 292.5,249.5 292.5,242.5 292.5,235.5 Z"/></g>
<g><path style="opacity:1" fill="#020202" d="M 1784.5,253.5 C 1810.85,253.351 1823.35,266.351 1822,292.5C 1815.25,311.794 1801.75,319.628 1781.5,316C 1764.65,309.142 1757.48,296.642 1760,278.5C 1763.66,265.678 1771.82,257.344 1784.5,253.5 Z"/></g>
<g><path style="opacity:1" fill="#3f3f3f" d="M 632.5,293.5 C 631.503,312.659 631.17,331.993 631.5,351.5C 630.172,331.996 630.172,312.329 631.5,292.5C 632.107,292.624 632.44,292.957 632.5,293.5 Z"/></g>
<g><path style="opacity:1" fill="#fefefe" d="M 632.5,293.5 C 654.5,316.167 676.833,338.5 699.5,360.5C 679.34,361.497 659.007,361.83 638.5,361.5C 633.862,359.851 631.529,356.517 631.5,351.5C 631.17,331.993 631.503,312.659 632.5,293.5 Z"/></g>
<g><path style="opacity:1" fill="#f9f9f9" d="M 327.5,298.5 C 338.172,298.333 348.839,298.5 359.5,299C 365.603,302.04 367.769,306.874 366,313.5C 364.437,316.728 361.937,318.895 358.5,320C 347.833,320.333 337.167,320.667 326.5,321C 315,324.5 307.5,332 304,343.5C 295.147,390.309 314.313,411.142 361.5,406C 367.082,410.739 367.915,416.239 364,422.5C 362.581,423.46 361.081,424.293 359.5,425C 347.833,425.667 336.167,425.667 324.5,425C 303.099,419.265 289.265,405.765 283,384.5C 281.433,371.548 281.1,358.548 282,345.5C 286.902,319.767 302.068,304.1 327.5,298.5 Z"/></g>
<g><path style="opacity:1" fill="#fafafa" d="M 418.5,298.5 C 427.839,298.334 437.173,298.5 446.5,299C 464.344,304.17 472.844,316.004 472,334.5C 466.468,342.874 460.134,343.54 453,336.5C 452.123,332.025 450.789,327.692 449,323.5C 447.745,322.789 446.579,321.956 445.5,321C 436.5,320.333 427.5,320.333 418.5,321C 410.566,325.27 407.733,331.77 410,340.5C 411.474,345.974 414.974,349.474 420.5,351C 435.299,348.925 448.632,352.258 460.5,361C 473.895,375.192 476.062,391.026 467,408.5C 461.188,416.827 453.354,422.327 443.5,425C 431.762,425.935 420.095,425.602 408.5,424C 392.538,416.576 386.372,404.409 390,387.5C 395.667,382.167 401.333,382.167 407,387.5C 408.016,391.921 409.349,396.255 411,400.5C 412.41,401.787 413.91,402.954 415.5,404C 423.5,404.667 431.5,404.667 439.5,404C 452.452,397.761 454.785,388.761 446.5,377C 444.044,375.289 441.377,373.956 438.5,373C 421.858,375.806 407.691,371.306 396,359.5C 382.944,339.776 385.11,321.943 402.5,306C 407.615,302.807 412.948,300.307 418.5,298.5 Z"/></g>
<g><path style="opacity:1" fill="#fafafa" d="M 524.5,298.5 C 535.97,297.876 547.304,298.709 558.5,301C 574.263,308.685 580.097,320.852 576,337.5C 572.319,340.36 568.152,341.193 563.5,340C 558.586,337.341 556.419,333.174 557,327.5C 555.75,324.829 553.917,322.663 551.5,321C 542.5,320.333 533.5,320.333 524.5,321C 516.566,325.27 513.733,331.77 516,340.5C 517.406,345.573 520.572,349.073 525.5,351C 538.592,349.761 550.926,352.094 562.5,358C 578.84,371.193 582.673,387.36 574,406.5C 568.147,415.682 559.981,421.849 549.5,425C 537.762,425.935 526.095,425.602 514.5,424C 499.168,416.824 492.668,404.991 495,388.5C 500.633,382.221 506.633,381.888 513,387.5C 514.459,391.8 515.793,396.133 517,400.5C 518.41,401.787 519.91,402.954 521.5,404C 529.5,404.667 537.5,404.667 545.5,404C 555.133,399.744 558.633,392.577 556,382.5C 553.359,377.856 549.525,374.689 544.5,373C 535.758,372.911 527.091,372.244 518.5,371C 498.637,362.108 490.803,346.941 495,325.5C 500.281,311.38 510.115,302.38 524.5,298.5 Z"/></g>
<g><path style="opacity:1" fill="#000000" d="M 1017.5,452.5 C 1049.33,453.498 1081.33,453.832 1113.5,453.5C 1113.5,450.167 1113.5,446.833 1113.5,443.5C 1113.8,428.999 1117.3,415.332 1124,402.5C 1138.21,388.081 1146.54,370.748 1149,350.5C 1149.97,340.187 1150.63,329.854 1151,319.5C 1159.2,308.33 1168.2,307.664 1178,317.5C 1178.86,319.087 1179.53,320.754 1180,322.5C 1181.15,344.086 1178.15,365.086 1171,385.5C 1163.3,399.187 1155.63,412.853 1148,426.5C 1144.89,435.24 1143.39,444.24 1143.5,453.5C 1184.83,453.667 1226.17,453.5 1267.5,453C 1283.39,422.997 1308.39,409.497 1342.5,412.5C 1376.65,410.758 1408.32,418.592 1437.5,436C 1467.36,457.53 1484.53,486.697 1489,523.5C 1494.62,601.329 1500.12,679.162 1505.5,757C 1500.52,805.975 1474.19,836.308 1426.5,848C 1401.53,851.007 1378.2,846.34 1356.5,834C 1346.8,827.446 1339.3,818.946 1334,808.5C 1322.7,782.563 1310.86,756.897 1298.5,731.5C 1253.15,753.691 1212.32,747.358 1176,712.5C 1171.45,706.945 1167.28,701.112 1163.5,695C 1149.49,694.167 1135.49,694.334 1121.5,695.5C 1106.19,719.98 1084.85,736.813 1057.5,746C 1038.13,751.242 1019.8,748.908 1002.5,739C 996.724,735.556 991.224,731.723 986,727.5C 974.725,753.051 963.725,778.717 953,804.5C 940.9,828.568 921.4,842.735 894.5,847C 844.634,854.154 809.134,834.988 788,789.5C 780.765,769.453 778.432,748.786 781,727.5C 786.18,658.488 791.514,589.488 797,520.5C 810.02,463.813 844.853,428.646 901.5,415C 922.748,412.521 944.082,411.855 965.5,413C 983.39,416.358 997.89,425.191 1009,439.5C 1011.86,443.898 1014.69,448.232 1017.5,452.5 Z"/></g>
<g><path style="opacity:1" fill="#fdfdfd" d="M 1981.5,348.5 C 2004.17,348.333 2026.84,348.5 2049.5,349C 2063.48,351.644 2072.31,359.811 2076,373.5C 2076.67,420.5 2076.67,467.5 2076,514.5C 2072.12,528.534 2062.95,536.7 2048.5,539C 1970.5,539.333 1892.5,539.667 1814.5,540C 1793.06,549.068 1786.56,564.568 1795,586.5C 1799.33,593.16 1805.16,597.993 1812.5,601C 1847.79,602.467 1883.13,602.967 1918.5,602.5C 1918.67,635.502 1918.5,668.502 1918,701.5C 1914.82,716.682 1905.65,725.848 1890.5,729C 1844.5,729.667 1798.5,729.667 1752.5,729C 1739.67,725.5 1731.5,717.333 1728,704.5C 1727.33,646.833 1727.33,589.167 1728,531.5C 1731.83,519.667 1739.67,511.833 1751.5,508C 1799.83,507.667 1848.17,507.333 1896.5,507C 1936.62,500.878 1963.45,478.711 1977,440.5C 1978.98,433.621 1980.31,426.621 1981,419.5C 1981.5,395.836 1981.67,372.169 1981.5,348.5 Z"/></g>
<g><path style="opacity:1" fill="#bbbbbb" d="M 699.5,360.5 C 700.043,360.56 700.376,360.893 700.5,361.5C 679.671,362.828 659.004,362.828 638.5,361.5C 659.007,361.83 679.34,361.497 699.5,360.5 Z"/></g>
<g><path style="opacity:1" fill="#b9b9b9" d="M 1113.5,443.5 C 1113.5,446.833 1113.5,450.167 1113.5,453.5C 1081.33,453.832 1049.33,453.498 1017.5,452.5C 1049.17,452.5 1080.83,452.5 1112.5,452.5C 1112.19,449.287 1112.52,446.287 1113.5,443.5 Z"/></g>
<g><path style="opacity:1" fill="#7e7e7e" d="M 250.5,468.5 C 405.666,467.5 560.999,467.167 716.5,467.5C 716.833,587.668 716.5,707.668 715.5,827.5C 715.5,707.833 715.5,588.167 715.5,468.5C 560.5,468.5 405.5,468.5 250.5,468.5 Z"/></g>
<g><path style="opacity:1" fill="#fefefe" d="M 250.5,468.5 C 405.5,468.5 560.5,468.5 715.5,468.5C 715.5,588.167 715.5,707.833 715.5,827.5C 560.5,827.5 405.5,827.5 250.5,827.5C 250.5,707.833 250.5,588.167 250.5,468.5 Z"/></g>
<g><path style="opacity:1" fill="#fcfcfc" d="M 1286.5,507.5 C 1304.24,505.778 1316.4,513.111 1323,529.5C 1326.03,547.951 1318.86,560.451 1301.5,567C 1284.12,570.062 1271.95,563.562 1265,547.5C 1260.91,528.005 1268.08,514.672 1286.5,507.5 Z"/></g>
<g><path style="opacity:1" fill="#fcfcfc" d="M 1377.5,507.5 C 1402.96,506.798 1415.13,519.131 1414,544.5C 1407.81,562.331 1395.31,569.831 1376.5,567C 1359.16,560.491 1351.99,547.991 1355,529.5C 1359.08,518.583 1366.58,511.249 1377.5,507.5 Z"/></g>
<g><path style="opacity:1" fill="#f7f7f7" d="M 909.5,522.5 C 916.35,521.672 921.183,524.339 924,530.5C 925.43,544.774 925.93,559.108 925.5,573.5C 938.504,573.333 951.504,573.5 964.5,574C 974.872,576.243 978.372,582.41 975,592.5C 972.612,595.634 969.446,597.467 965.5,598C 952.171,598.5 938.837,598.667 925.5,598.5C 925.667,609.838 925.5,621.172 925,632.5C 922.369,642.491 916.202,645.658 906.5,642C 903.366,639.612 901.533,636.446 901,632.5C 900.5,621.172 900.333,609.838 900.5,598.5C 888.829,598.667 877.162,598.5 865.5,598C 855.337,594.502 852.837,588.002 858,578.5C 859.579,576.959 861.413,575.792 863.5,575C 875.772,573.582 888.105,573.082 900.5,573.5C 900.333,559.829 900.5,546.163 901,532.5C 902.289,527.721 905.123,524.388 909.5,522.5 Z"/></g>
<g><path style="opacity:1" fill="#040404" d="M 401.5,552.5 C 409.045,550.864 414.878,553.197 419,559.5C 420.013,563.744 419.18,567.577 416.5,571C 411.676,572.898 406.676,574.231 401.5,575C 394.811,578.181 390.311,583.348 388,590.5C 387.667,602.167 387.333,613.833 387,625.5C 384.664,634.344 380.164,641.844 373.5,648C 380.164,654.156 384.664,661.656 387,670.5C 387.333,681.5 387.667,692.5 388,703.5C 391.282,716.582 399.782,723.082 413.5,723C 420.017,727.245 421.183,732.745 417,739.5C 413.826,741.993 410.159,742.993 406,742.5C 386.056,740.561 373.389,729.895 368,710.5C 366.772,698.214 366.105,685.881 366,673.5C 360.799,662.31 351.966,656.81 339.5,657C 332.833,651 332.833,645 339.5,639C 344.935,638.099 350.268,636.766 355.5,635C 361.083,631.665 364.583,626.832 366,620.5C 366.333,609.833 366.667,599.167 367,588.5C 371.56,569.774 383.06,557.774 401.5,552.5 Z"/></g>
<g><path style="opacity:1" fill="#030303" d="M 554.5,552.5 C 578.444,553.281 593.278,565.281 599,588.5C 599.333,599.5 599.667,610.5 600,621.5C 604.788,633.263 613.621,639.097 626.5,639C 633.077,644.922 633.077,650.922 626.5,657C 614.034,656.81 605.201,662.31 600,673.5C 599.853,686.536 599.187,699.536 598,712.5C 590.156,733.685 574.989,743.518 552.5,742C 545.408,736.769 544.741,730.769 550.5,724C 555.507,722.775 560.507,721.441 565.5,720C 571.82,717.014 575.987,712.181 578,705.5C 578.102,692.786 578.769,680.12 580,667.5C 582.782,660.1 586.949,653.6 592.5,648C 584.987,641.143 580.487,632.643 579,622.5C 578.667,611.833 578.333,601.167 578,590.5C 573.98,578.389 565.48,572.556 552.5,573C 544.156,565.241 544.823,558.408 554.5,552.5 Z"/></g>
<g><path style="opacity:1" fill="#f7f7f7" d="M 1078.5,573.5 C 1090.84,573.333 1103.17,573.5 1115.5,574C 1125.87,576.243 1129.37,582.41 1126,592.5C 1123.61,595.634 1120.45,597.467 1116.5,598C 1102.11,598.93 1087.78,598.597 1073.5,597C 1067.77,593.004 1065.93,587.504 1068,580.5C 1070.7,576.748 1074.2,574.415 1078.5,573.5 Z"/></g>
<g><path style="opacity:1" fill="#f6f6f6" d="M 1169.5,573.5 C 1181.84,573.333 1194.17,573.5 1206.5,574C 1218.76,577.508 1221.43,584.508 1214.5,595C 1212.51,596.751 1210.18,597.751 1207.5,598C 1194.17,598.667 1180.83,598.667 1167.5,598C 1157.88,594.263 1155.38,587.763 1160,578.5C 1162.91,576.132 1166.07,574.465 1169.5,573.5 Z"/></g>
<g><path style="opacity:1" fill="#fcfcfc" d="M 1285.5,598.5 C 1303.86,596.053 1316.36,603.386 1323,620.5C 1326.11,639.45 1318.61,651.95 1300.5,658C 1281.77,660.26 1269.6,652.426 1264,634.5C 1262.19,617.12 1269.36,605.12 1285.5,598.5 Z"/></g>
<g><path style="opacity:1" fill="#fdfdfd" d="M 1376.5,598.5 C 1401.99,597.159 1414.49,609.159 1414,634.5C 1408.4,652.426 1396.23,660.26 1377.5,658C 1359.7,652.231 1352.2,640.065 1355,621.5C 1358.25,610.089 1365.41,602.422 1376.5,598.5 Z"/></g>
<g><path style="opacity:1" fill="#030303" d="M 1847.5,634.5 C 1867.37,632.846 1880.2,641.513 1886,660.5C 1886.98,682.685 1876.48,695.352 1854.5,698.5C 1834.48,696.29 1823.81,685.123 1822.5,665C 1824.11,649.248 1832.45,639.081 1847.5,634.5 Z"/></g>
<g><path style="opacity:1" fill="#818181" d="M 1595.5,665.5 C 1618.5,665.5 1641.5,665.5 1664.5,665.5C 1664.5,678.167 1664.5,690.833 1664.5,703.5C 1663.5,691.345 1663.17,679.011 1663.5,666.5C 1640.66,666.831 1617.99,666.497 1595.5,665.5 Z"/></g>
<g><path style="opacity:1" fill="#040404" d="M 1893.5,916.5 C 1914.97,916.129 1924.14,926.463 1921,947.5C 1860.53,1103.91 1799.86,1260.25 1739,1416.5C 1729.61,1427.27 1718.44,1429.44 1705.5,1423C 1697.27,1415.98 1694.44,1407.14 1697,1396.5C 1757.8,1239.75 1818.8,1083.09 1880,926.5C 1883.8,922.037 1888.3,918.703 1893.5,916.5 Z"/></g>
<g><path style="opacity:1" fill="#010101" d="M 268.5,917.5 C 401.167,917.333 533.834,917.5 666.5,918C 667.931,918.465 669.097,919.299 670,920.5C 671.664,1076.09 671.997,1231.75 671,1387.5C 670.261,1390.57 668.428,1392.74 665.5,1394C 656.173,1394.5 646.839,1394.67 637.5,1394.5C 637.923,1404.58 637.423,1414.58 636,1424.5C 634.786,1426.05 633.286,1427.22 631.5,1428C 499.167,1428.67 366.833,1428.67 234.5,1428C 233.421,1427.04 232.255,1426.21 231,1425.5C 229.336,1268.91 229.003,1112.25 230,955.5C 231.167,954.333 232.333,953.167 233.5,952C 243.494,951.5 253.494,951.334 263.5,951.5C 263.334,941.494 263.5,931.494 264,921.5C 265.397,919.93 266.897,918.596 268.5,917.5 Z"/></g>
<g><path style="opacity:1" fill="#050505" d="M 1230.5,1302.5 C 1216.68,1301.5 1202.68,1301.17 1188.5,1301.5C 1188.17,1322.01 1188.5,1342.34 1189.5,1362.5C 1210.12,1363.45 1221.79,1374.12 1224.5,1394.5C 1223.54,1410.62 1215.54,1421.45 1200.5,1427C 1145.17,1427.67 1089.83,1427.67 1034.5,1427C 1013.5,1418.49 1006.33,1403.32 1013,1381.5C 1019.95,1368.61 1030.78,1362.27 1045.5,1362.5C 1046.5,1342.34 1046.83,1322.01 1046.5,1301.5C 977.5,1301.5 908.5,1301.5 839.5,1301.5C 828.877,1299.72 821.711,1293.72 818,1283.5C 817.333,1167.83 817.333,1052.17 818,936.5C 820.73,927.435 826.564,921.269 835.5,918C 1022.83,917.333 1210.17,917.333 1397.5,918C 1407.56,920.391 1414.06,926.557 1417,936.5C 1417.33,1010.5 1417.67,1084.5 1418,1158.5C 1447.53,1187.27 1459.87,1222.27 1455,1263.5C 1443.75,1318.09 1410.91,1351.59 1356.5,1364C 1301.33,1369.91 1259.33,1349.41 1230.5,1302.5 Z"/></g>
<g><path style="opacity:1" fill="#fbfbfb" d="M 1895.5,930.5 C 1906.36,930.186 1910.19,935.186 1907,945.5C 1847.33,1099.5 1787.67,1253.5 1728,1407.5C 1722.79,1414.94 1717.12,1415.27 1711,1408.5C 1709.63,1406.3 1709.29,1403.97 1710,1401.5C 1770.27,1245.34 1830.94,1089.34 1892,933.5C 1893.15,932.364 1894.31,931.364 1895.5,930.5 Z"/></g>
<g><path style="opacity:1" fill="#f7f7f7" d="M 837.5,931.5 C 1023.83,931.333 1210.17,931.5 1396.5,932C 1399.33,933.5 1401.5,935.667 1403,938.5C 1403.83,1007.84 1403.67,1077.17 1402.5,1146.5C 1399.83,1144.83 1397.17,1143.17 1394.5,1141.5C 1393.67,1080.5 1393.17,1019.5 1393,958.5C 1390.07,949.904 1384.24,944.404 1375.5,942C 1202.83,941.333 1030.17,941.333 857.5,942C 850.333,945.167 845.167,950.333 842,957.5C 841.5,1041.83 841.333,1126.17 841.5,1210.5C 838.167,1210.5 834.833,1210.5 831.5,1210.5C 831.333,1119.5 831.5,1028.5 832,937.5C 834.04,935.63 835.873,933.63 837.5,931.5 Z"/></g>
<g><path style="opacity:1" fill="#fefefe" d="M 279.5,934.5 C 404.5,934.5 529.5,934.5 654.5,934.5C 654.5,1082.17 654.5,1229.83 654.5,1377.5C 648.833,1377.5 643.167,1377.5 637.5,1377.5C 637.667,1265.5 637.5,1153.5 637,1041.5C 608.528,1012.03 579.695,982.861 550.5,954C 549.167,953.333 547.833,952.667 546.5,952C 457.501,951.5 368.501,951.333 279.5,951.5C 279.5,945.833 279.5,940.167 279.5,934.5 Z"/></g>
<g><path style="opacity:1" fill="#fefefe" d="M 860.5,955.5 C 1032.25,955.003 1203.91,955.503 1375.5,957C 1377.05,958.214 1378.22,959.714 1379,961.5C 1379.83,1019.17 1379.67,1076.84 1378.5,1134.5C 1326.69,1117.33 1282.19,1128.66 1245,1168.5C 1234.63,1180.91 1227.13,1194.91 1222.5,1210.5C 1100.17,1210.5 977.833,1210.5 855.5,1210.5C 855.333,1127.17 855.5,1043.83 856,960.5C 857.707,958.963 859.207,957.296 860.5,955.5 Z"/></g>
<g><path style="opacity:1" fill="#fbfbfb" d="M 552.5,980.5 C 571.327,998.494 589.66,1016.99 607.5,1036C 590.833,1036.67 574.167,1036.67 557.5,1036C 555.274,1034.77 553.774,1032.94 553,1030.5C 552.5,1013.84 552.333,997.17 552.5,980.5 Z"/></g>
<g><path style="opacity:1" fill="#fbfbfb" d="M 276.5,985.5 C 281.384,984.861 285.217,986.527 288,990.5C 288.5,1002.83 288.667,1015.16 288.5,1027.5C 299.833,1027.5 311.167,1027.5 322.5,1027.5C 322.333,1015.16 322.5,1002.83 323,990.5C 328.43,983.855 333.764,983.855 339,990.5C 339.667,1021.17 339.667,1051.83 339,1082.5C 336.459,1087.07 332.625,1088.57 327.5,1087C 325.667,1085.83 324.167,1084.33 323,1082.5C 322.5,1070.17 322.333,1057.84 322.5,1045.5C 311.167,1045.5 299.833,1045.5 288.5,1045.5C 288.667,1057.5 288.5,1069.5 288,1081.5C 285.016,1087.72 280.516,1089.05 274.5,1085.5C 273.416,1084.33 272.583,1083 272,1081.5C 271.333,1051.17 271.333,1020.83 272,990.5C 273.366,988.638 274.866,986.972 276.5,985.5 Z"/></g>
<g><path style="opacity:1" fill="#fbfbfb" d="M 361.5,985.5 C 380.836,985.333 400.17,985.5 419.5,986C 422.934,987.529 424.6,990.196 424.5,994C 424.592,996.814 423.592,999.147 421.5,1001C 414.254,1002.39 406.921,1002.89 399.5,1002.5C 399.667,1028.84 399.5,1055.17 399,1081.5C 395.96,1087.37 391.46,1088.87 385.5,1086C 384.299,1085.1 383.465,1083.93 383,1082.5C 382.5,1055.84 382.333,1029.17 382.5,1002.5C 375.492,1002.67 368.492,1002.5 361.5,1002C 354.868,996.423 354.868,990.923 361.5,985.5 Z"/></g>
<g><path style="opacity:1" fill="#fbfbfb" d="M 493.5,1081.5 C 493.833,1062.82 493.5,1044.15 492.5,1025.5C 491.893,1025.62 491.56,1025.96 491.5,1026.5C 488.596,1033.16 484.596,1038.99 479.5,1044C 474.788,1045.44 470.955,1044.28 468,1040.5C 465.488,1036.14 462.988,1031.81 460.5,1027.5C 460.217,1026.71 459.717,1026.04 459,1025.5C 458.5,1043.83 458.333,1062.16 458.5,1080.5C 456.74,1086.55 452.74,1088.72 446.5,1087C 444.622,1085.46 443.122,1083.62 442,1081.5C 441.333,1051.5 441.333,1021.5 442,991.5C 444.932,985.456 449.432,983.956 455.5,987C 462.458,997.749 469.292,1008.58 476,1019.5C 482.208,1008.24 489.042,997.412 496.5,987C 501.82,984.298 505.987,985.465 509,990.5C 509.667,1021.17 509.667,1051.83 509,1082.5C 506.459,1087.07 502.625,1088.57 497.5,1087C 495.536,1085.55 494.203,1083.72 493.5,1081.5 Z"/></g>
<g><path style="opacity:1" fill="#040404" d="M 942.5,987.5 C 955.171,987.333 967.838,987.5 980.5,988C 981.333,988.833 982.167,989.667 983,990.5C 983.187,997.081 983.687,1003.58 984.5,1010C 989.081,1011.87 993.248,1014.37 997,1017.5C 1001.75,1014.54 1006.58,1011.71 1011.5,1009C 1013.97,1008.29 1016.3,1008.63 1018.5,1010C 1024.71,1019.59 1030.54,1029.42 1036,1039.5C 1036.67,1041.5 1036.67,1043.5 1036,1045.5C 1030.94,1049.56 1025.61,1053.22 1020,1056.5C 1019.33,1061.5 1019.33,1066.5 1020,1071.5C 1024.75,1074.46 1029.58,1077.29 1034.5,1080C 1035.85,1081.57 1036.51,1083.41 1036.5,1085.5C 1031.58,1097.19 1025.24,1108.02 1017.5,1118C 1015.17,1118.67 1012.83,1118.67 1010.5,1118C 1006.17,1115.5 1001.83,1113 997.5,1110.5C 993.294,1113.1 988.961,1115.44 984.5,1117.5C 983.669,1124.14 983.169,1130.81 983,1137.5C 981.829,1138.89 980.329,1139.73 978.5,1140C 966.071,1140.96 953.737,1140.63 941.5,1139C 940.874,1138.25 940.374,1137.42 940,1136.5C 939.831,1130.14 939.331,1123.81 938.5,1117.5C 934.075,1115.54 929.908,1113.21 926,1110.5C 921.435,1112.87 916.935,1115.37 912.5,1118C 909.77,1118.73 907.103,1118.56 904.5,1117.5C 898.414,1107.66 892.581,1097.66 887,1087.5C 886.294,1085.03 886.627,1082.7 888,1080.5C 893,1077.5 898,1074.5 903,1071.5C 903.829,1066.14 903.663,1060.8 902.5,1055.5C 896.908,1052.79 891.741,1049.46 887,1045.5C 886.245,1042.7 886.578,1040.03 888,1037.5C 893.123,1028.08 898.623,1018.92 904.5,1010C 906.695,1008.63 909.029,1008.29 911.5,1009C 916.416,1011.71 921.249,1014.54 926,1017.5C 929.752,1014.37 933.919,1011.87 938.5,1010C 939.313,1003.58 939.813,997.081 940,990.5C 941.045,989.627 941.878,988.627 942.5,987.5 Z"/></g>
<g><path style="opacity:1" fill="#fbfbfb" d="M 970.5,1110.5 C 969.513,1115.31 969.179,1120.31 969.5,1125.5C 964.167,1125.5 958.833,1125.5 953.5,1125.5C 953.666,1120.49 953.499,1115.49 953,1110.5C 951.833,1109.33 950.667,1108.17 949.5,1107C 941.472,1103.61 933.972,1099.44 927,1094.5C 921.743,1096.63 916.743,1099.3 912,1102.5C 908.915,1098 906.082,1093.33 903.5,1088.5C 907.205,1085.47 911.205,1082.81 915.5,1080.5C 917.321,1078.52 918.321,1076.19 918.5,1073.5C 917.379,1065.82 917.212,1058.15 918,1050.5C 917.535,1049.07 916.701,1047.9 915.5,1047C 911.332,1044.75 907.332,1042.25 903.5,1039.5C 906.082,1034.67 908.915,1030 912,1025.5C 915.59,1028.05 919.423,1030.21 923.5,1032C 925.833,1032.67 928.167,1032.67 930.5,1032C 935.838,1026.67 942.172,1023 949.5,1021C 951.049,1019.79 952.215,1018.29 953,1016.5C 953.499,1011.51 953.666,1006.51 953.5,1001.5C 959.167,1001.5 964.833,1001.5 970.5,1001.5C 970.334,1007.18 970.501,1012.84 971,1018.5C 974.805,1021.32 978.971,1023.49 983.5,1025C 986.5,1027.33 989.5,1029.67 992.5,1032C 994.833,1032.67 997.167,1032.67 999.5,1032C 1003.58,1030.21 1007.41,1028.05 1011,1025.5C 1014.43,1029.77 1017.26,1034.44 1019.5,1039.5C 1015.67,1042.25 1011.67,1044.75 1007.5,1047C 1005.7,1048.59 1004.7,1050.59 1004.5,1053C 1005.64,1060.86 1005.81,1068.69 1005,1076.5C 1005.58,1078 1006.42,1079.33 1007.5,1080.5C 1011.88,1082.68 1015.88,1085.35 1019.5,1088.5C 1017.15,1093.2 1014.32,1097.54 1011,1101.5C 1006.61,1099.72 1002.45,1097.56 998.5,1095C 996.833,1094.33 995.167,1094.33 993.5,1095C 987.796,1100.52 981.129,1104.52 973.5,1107C 972.29,1108.04 971.29,1109.21 970.5,1110.5 Z"/></g>
<g><path style="opacity:1" fill="#050505" d="M 1684.5,1003.5 C 1704.08,1003.34 1713.25,1013 1712,1032.5C 1711,1034.83 1710,1037.17 1709,1039.5C 1704.83,1044.01 1700.33,1048.17 1695.5,1052C 1644.32,1091.76 1593.32,1131.76 1542.5,1172C 1597.62,1214.79 1652.45,1257.95 1707,1301.5C 1715.93,1315.41 1713.76,1327.24 1700.5,1337C 1691.39,1340.91 1682.72,1340.25 1674.5,1335C 1614.12,1286.95 1553.45,1239.29 1492.5,1192C 1479.67,1180.84 1478.33,1168.5 1488.5,1155C 1550.83,1106 1613.17,1057 1675.5,1008C 1678.59,1006.45 1681.59,1004.95 1684.5,1003.5 Z"/></g>
<g><path style="opacity:1" fill="#050505" d="M 1926.5,1003.5 C 1934.19,1002.79 1941.19,1004.62 1947.5,1009C 2006.32,1055.57 2065.32,1101.91 2124.5,1148C 2128.63,1151.13 2132.47,1154.63 2136,1158.5C 2142.04,1170.75 2140.21,1181.58 2130.5,1191C 2068.83,1239.33 2007.17,1287.67 1945.5,1336C 1932.21,1342.68 1921.04,1340.18 1912,1328.5C 1906.64,1316.04 1909.14,1305.54 1919.5,1297C 1972.68,1255.57 2025.68,1213.91 2078.5,1172C 2023.33,1128.17 1968.17,1084.33 1913,1040.5C 1905.36,1023.59 1909.86,1011.25 1926.5,1003.5 Z"/></g>
<g><path style="opacity:1" fill="#fbfbfb" d="M 1686.5,1017.5 C 1695.53,1017.36 1699.36,1021.69 1698,1030.5C 1696.88,1032.62 1695.38,1034.46 1693.5,1036C 1635.55,1080.95 1577.88,1126.29 1520.5,1172C 1577.55,1217.38 1634.88,1262.38 1692.5,1307C 1699.12,1311.72 1700.12,1317.39 1695.5,1324C 1690.01,1326.47 1685.01,1325.8 1680.5,1322C 1619.94,1273.8 1559.11,1225.97 1498,1178.5C 1494.31,1173.18 1494.81,1168.35 1499.5,1164C 1561.73,1114.92 1624.07,1066.09 1686.5,1017.5 Z"/></g>
<g><path style="opacity:1" fill="#fbfbfb" d="M 1929.5,1017.5 C 1934.24,1017.04 1938.24,1018.54 1941.5,1022C 2002.94,1070.14 2064.11,1118.64 2125,1167.5C 2125.67,1170.5 2125.67,1173.5 2125,1176.5C 2062.62,1226.6 1999.79,1276.1 1936.5,1325C 1926.39,1326.89 1922.22,1322.72 1924,1312.5C 1924.47,1311.07 1925.3,1309.9 1926.5,1309C 1984.83,1263.33 2043.17,1217.67 2101.5,1172C 2042.05,1125.55 1982.88,1078.71 1924,1031.5C 1922.02,1025.18 1923.86,1020.51 1929.5,1017.5 Z"/></g>
<g><path style="opacity:1" fill="#bbbbbb" d="M 491.5,1026.5 C 491.56,1025.96 491.893,1025.62 492.5,1025.5C 493.5,1044.15 493.833,1062.82 493.5,1081.5C 492.833,1063.17 492.167,1044.83 491.5,1026.5 Z"/></g>
<g><path style="opacity:1" fill="#3f3f3f" d="M 460.5,1027.5 C 459.833,1045.17 459.167,1062.83 458.5,1080.5C 458.333,1062.16 458.5,1043.83 459,1025.5C 459.717,1026.04 460.217,1026.71 460.5,1027.5 Z"/></g>
<g><path style="opacity:1" fill="#040404" d="M 955.5,1035.5 C 981.018,1035.84 991.852,1048.51 988,1073.5C 981.564,1088.14 970.398,1093.97 954.5,1091C 938.355,1085.23 931.522,1073.73 934,1056.5C 937.776,1045.89 944.943,1038.89 955.5,1035.5 Z"/></g>
<g><path style="opacity:1" fill="#f8f8f8" d="M 957.5,1049.5 C 971.874,1049.69 977.374,1056.69 974,1070.5C 969.532,1077.08 963.365,1079.25 955.5,1077C 947.185,1071.55 945.352,1064.39 950,1055.5C 952.114,1052.88 954.614,1050.88 957.5,1049.5 Z"/></g>
<g><path style="opacity:1" fill="#050505" d="M 1078.5,1072.5 C 1082.59,1071.7 1085.76,1073.04 1088,1076.5C 1089.1,1079.86 1090.6,1083.03 1092.5,1086C 1095.5,1086.67 1098.5,1086.67 1101.5,1086C 1103.85,1082.65 1106.52,1079.65 1109.5,1077C 1113.21,1076 1116.54,1076.67 1119.5,1079C 1125.33,1083.5 1131.17,1088 1137,1092.5C 1137.67,1095.17 1137.67,1097.83 1137,1100.5C 1134.83,1103.33 1132.67,1106.17 1130.5,1109C 1132.07,1111.3 1133.24,1113.8 1134,1116.5C 1138.11,1117.42 1142.27,1118.26 1146.5,1119C 1148.33,1119.5 1149.5,1120.67 1150,1122.5C 1149.88,1132.27 1148.88,1141.94 1147,1151.5C 1146.17,1152.33 1145.33,1153.17 1144.5,1154C 1139.43,1154.15 1134.43,1154.32 1129.5,1154.5C 1127.9,1156.71 1126.56,1159.04 1125.5,1161.5C 1127.26,1165.18 1128.59,1169.01 1129.5,1173C 1129.37,1174.63 1128.87,1176.13 1128,1177.5C 1120.6,1181.19 1113.1,1184.69 1105.5,1188C 1102.77,1188.73 1100.1,1188.56 1097.5,1187.5C 1095.03,1183.94 1093.03,1180.11 1091.5,1176C 1088.63,1175.69 1085.8,1175.19 1083,1174.5C 1079.95,1178.1 1076.78,1181.6 1073.5,1185C 1070.12,1185.94 1067.12,1185.27 1064.5,1183C 1058.24,1178.29 1052.08,1173.45 1046,1168.5C 1045.33,1166.17 1045.33,1163.83 1046,1161.5C 1048.36,1158.64 1050.53,1155.64 1052.5,1152.5C 1051.31,1150.25 1050.31,1147.92 1049.5,1145.5C 1045.53,1144.53 1041.53,1143.69 1037.5,1143C 1035.33,1142.17 1033.83,1140.67 1033,1138.5C 1033.04,1129.09 1034.04,1119.76 1036,1110.5C 1037.62,1108.27 1039.79,1106.94 1042.5,1106.5C 1049.86,1109.42 1055.19,1107.42 1058.5,1100.5C 1056.44,1096.66 1054.77,1092.66 1053.5,1088.5C 1053.72,1087.06 1054.22,1085.73 1055,1084.5C 1062.82,1080.34 1070.65,1076.34 1078.5,1072.5 Z"/></g>
<g><path style="opacity:1" fill="#f7f7f7" d="M 1075.5,1089.5 C 1076.82,1089.33 1077.99,1089.66 1079,1090.5C 1079.82,1094.66 1081.99,1097.83 1085.5,1100C 1091.76,1100.2 1097.93,1101.04 1104,1102.5C 1108.07,1100.77 1111.23,1097.94 1113.5,1094C 1116.67,1093.97 1119,1095.47 1120.5,1098.5C 1117.93,1101.4 1116.27,1104.73 1115.5,1108.5C 1117.68,1114.19 1119.85,1119.85 1122,1125.5C 1122.78,1127.29 1123.95,1128.79 1125.5,1130C 1128.79,1130.83 1132.13,1131.33 1135.5,1131.5C 1135.5,1134.17 1135.5,1136.83 1135.5,1139.5C 1131.15,1139.33 1126.82,1139.5 1122.5,1140C 1118.7,1145.77 1114.53,1151.27 1110,1156.5C 1110.36,1160.89 1111.03,1165.22 1112,1169.5C 1110.09,1170.69 1108.09,1171.69 1106,1172.5C 1104.08,1169.66 1102.41,1166.66 1101,1163.5C 1100.25,1162.87 1099.42,1162.37 1098.5,1162C 1091.91,1161.83 1085.41,1160.99 1079,1159.5C 1074.77,1161.4 1071.43,1164.4 1069,1168.5C 1066.69,1167.02 1064.52,1165.36 1062.5,1163.5C 1065.16,1160.35 1067.16,1156.85 1068.5,1153C 1065.33,1147.15 1062.83,1140.98 1061,1134.5C 1057.11,1131.48 1052.61,1130.15 1047.5,1130.5C 1047.58,1127.79 1047.91,1125.13 1048.5,1122.5C 1052.97,1122.87 1057.3,1122.37 1061.5,1121C 1064.4,1116.05 1067.9,1111.55 1072,1107.5C 1072.96,1105.8 1073.46,1103.97 1073.5,1102C 1072.64,1098.45 1071.64,1094.95 1070.5,1091.5C 1072.55,1091.6 1074.22,1090.93 1075.5,1089.5 Z"/></g>
<g><path style="opacity:1" fill="#060606" d="M 1085.5,1108.5 C 1099.61,1106.63 1109.11,1112.3 1114,1125.5C 1115.31,1142.22 1107.64,1151.55 1091,1153.5C 1074.35,1150.49 1067.35,1140.49 1070,1123.5C 1073.11,1116.23 1078.27,1111.23 1085.5,1108.5 Z"/></g>
<g><path style="opacity:1" fill="#fefefe" d="M 246.5,1121.5 C 371.167,1121.5 495.833,1121.5 620.5,1121.5C 620.5,1217.83 620.5,1314.17 620.5,1410.5C 495.833,1410.5 371.167,1410.5 246.5,1410.5C 246.5,1314.17 246.5,1217.83 246.5,1121.5 Z"/></g>
<g><path style="opacity:1" fill="#f7f7f7" d="M 1088.5,1122.5 C 1097.21,1122.04 1100.71,1126.04 1099,1134.5C 1094.05,1141.15 1089.05,1141.15 1084,1134.5C 1082.47,1129.24 1083.97,1125.24 1088.5,1122.5 Z"/></g>
<g><path style="opacity:1" fill="#aaaaaa" d="M 970.5,1110.5 C 970.5,1115.83 970.5,1121.17 970.5,1126.5C 964.642,1126.82 958.975,1126.49 953.5,1125.5C 958.833,1125.5 964.167,1125.5 969.5,1125.5C 969.179,1120.31 969.513,1115.31 970.5,1110.5 Z"/></g>
<g><path style="opacity:1" fill="#fcfcfc" d="M 1323.5,1140.5 C 1375.72,1138.18 1412.88,1160.51 1435,1207.5C 1450.14,1253.34 1440.3,1292.84 1405.5,1326C 1370.99,1353.14 1333.32,1358.47 1292.5,1342C 1258.09,1325.04 1237.92,1297.54 1232,1259.5C 1228.34,1206.19 1250.84,1168.69 1299.5,1147C 1307.46,1144.18 1315.46,1142.01 1323.5,1140.5 Z"/></g>
<g><path style="opacity:1" fill="#050505" d="M 1317.5,1169.5 C 1330.6,1169.04 1343.6,1169.54 1356.5,1171C 1357,1171.5 1357.5,1172 1358,1172.5C 1358.17,1179.19 1358.67,1185.86 1359.5,1192.5C 1364.03,1194.2 1368.2,1196.53 1372,1199.5C 1376.83,1196.67 1381.67,1193.83 1386.5,1191C 1389.19,1190.46 1391.69,1190.96 1394,1192.5C 1400.63,1202.77 1406.47,1213.44 1411.5,1224.5C 1411.56,1226.48 1410.9,1228.15 1409.5,1229.5C 1404.75,1232.63 1399.92,1235.63 1395,1238.5C 1394.33,1243.5 1394.33,1248.5 1395,1253.5C 1399.75,1256.46 1404.58,1259.29 1409.5,1262C 1410.85,1263.57 1411.51,1265.41 1411.5,1267.5C 1407.63,1275.57 1403.46,1283.57 1399,1291.5C 1397.23,1295.27 1394.73,1298.43 1391.5,1301C 1389.83,1301.67 1388.17,1301.67 1386.5,1301C 1381.67,1298.17 1376.83,1295.33 1372,1292.5C 1368.1,1295.4 1363.93,1297.9 1359.5,1300C 1358.69,1306.42 1358.19,1312.92 1358,1319.5C 1357.1,1320.7 1355.93,1321.53 1354.5,1322C 1342.17,1322.67 1329.83,1322.67 1317.5,1322C 1316.67,1321.17 1315.83,1320.33 1315,1319.5C 1314.67,1313.17 1314.33,1306.83 1314,1300.5C 1309.37,1298.03 1304.87,1295.37 1300.5,1292.5C 1295.96,1295.53 1291.3,1298.37 1286.5,1301C 1284.03,1301.71 1281.7,1301.37 1279.5,1300C 1272.44,1289.55 1266.44,1278.55 1261.5,1267C 1261.61,1265.1 1262.28,1263.44 1263.5,1262C 1268.42,1259.29 1273.25,1256.46 1278,1253.5C 1278.67,1248.5 1278.67,1243.5 1278,1238.5C 1273,1235.5 1268,1232.5 1263,1229.5C 1261.58,1226.97 1261.25,1224.3 1262,1221.5C 1267.46,1211.42 1273.29,1201.59 1279.5,1192C 1281.36,1190.7 1283.36,1190.37 1285.5,1191C 1290.82,1193.33 1295.82,1196.16 1300.5,1199.5C 1304.74,1196.25 1309.4,1193.92 1314.5,1192.5C 1314.33,1185.83 1314.5,1179.16 1315,1172.5C 1316.04,1171.63 1316.88,1170.63 1317.5,1169.5 Z"/></g>
<g><path style="opacity:1" fill="#fafafa" d="M 1327.5,1183.5 C 1333.17,1183.5 1338.83,1183.5 1344.5,1183.5C 1344.33,1188.84 1344.5,1194.18 1345,1199.5C 1349.24,1203.26 1354.07,1206.09 1359.5,1208C 1362.84,1211.5 1366.84,1213.67 1371.5,1214.5C 1376.74,1213.13 1381.57,1210.8 1386,1207.5C 1389.08,1212 1391.92,1216.67 1394.5,1221.5C 1390.7,1224.24 1386.7,1226.74 1382.5,1229C 1380.56,1230.72 1379.56,1232.89 1379.5,1235.5C 1380.47,1243.5 1380.64,1251.5 1380,1259.5C 1380.47,1260.93 1381.3,1262.1 1382.5,1263C 1386.7,1265.26 1390.7,1267.76 1394.5,1270.5C 1391.92,1275.33 1389.08,1280 1386,1284.5C 1380.68,1280.41 1374.85,1277.91 1368.5,1277C 1362.8,1282.52 1356.13,1286.52 1348.5,1289C 1347.33,1290.17 1346.17,1291.33 1345,1292.5C 1344.5,1297.82 1344.33,1303.16 1344.5,1308.5C 1338.83,1308.5 1333.17,1308.5 1327.5,1308.5C 1327.67,1302.82 1327.5,1297.16 1327,1291.5C 1319.45,1287.64 1312.28,1283.14 1305.5,1278C 1298.6,1277.68 1292.44,1279.85 1287,1284.5C 1283.92,1280 1281.08,1275.33 1278.5,1270.5C 1282.08,1267.44 1286.08,1264.94 1290.5,1263C 1291.97,1261.21 1292.97,1259.21 1293.5,1257C 1292.43,1248.83 1292.27,1240.66 1293,1232.5C 1292.04,1231.42 1291.21,1230.25 1290.5,1229C 1286.08,1227.06 1282.08,1224.56 1278.5,1221.5C 1281.17,1216.83 1283.83,1212.17 1286.5,1207.5C 1290.17,1209.67 1293.83,1211.83 1297.5,1214C 1300.17,1214.67 1302.83,1214.67 1305.5,1214C 1311.08,1209.04 1317.41,1205.38 1324.5,1203C 1325.33,1202.17 1326.17,1201.33 1327,1200.5C 1327.5,1194.84 1327.67,1189.18 1327.5,1183.5 Z"/></g>
<g><path style="opacity:1" fill="#040404" d="M 363.5,1189.5 C 370.985,1189.48 374.485,1193.15 374,1200.5C 357.993,1222.67 341.826,1244.67 325.5,1266.5C 341.441,1288.28 357.607,1309.95 374,1331.5C 374.829,1340.66 370.662,1344.16 361.5,1342C 344.212,1319.92 327.046,1297.76 310,1275.5C 307.946,1272.73 306.446,1269.73 305.5,1266.5C 305.577,1264.7 306.077,1263.03 307,1261.5C 324,1239.17 341,1216.83 358,1194.5C 359.73,1192.6 361.563,1190.93 363.5,1189.5 Z"/></g>
<g><path style="opacity:1" fill="#040404" d="M 445.5,1189.5 C 449.95,1189.14 453.45,1190.81 456,1194.5C 456.425,1198.87 456.092,1203.2 455,1207.5C 445.663,1250.17 436.33,1292.84 427,1335.5C 425.196,1341.33 421.363,1343.83 415.5,1343C 413.333,1342.17 411.833,1340.67 411,1338.5C 410.333,1335.5 410.333,1332.5 411,1329.5C 420.795,1284.86 430.462,1240.19 440,1195.5C 441.36,1192.98 443.193,1190.98 445.5,1189.5 Z"/></g>
<g><path style="opacity:1" fill="#040404" d="M 498.5,1189.5 C 503.422,1189.9 507.255,1192.23 510,1196.5C 525.616,1217.78 541.616,1238.78 558,1259.5C 561.256,1264.1 561.256,1268.76 558,1273.5C 540.548,1296.62 522.715,1319.45 504.5,1342C 493.584,1343.41 490.084,1338.91 494,1328.5C 510.025,1307.98 525.858,1287.31 541.5,1266.5C 525.141,1245.31 508.975,1223.98 493,1202.5C 491.102,1196.39 492.935,1192.05 498.5,1189.5 Z"/></g>
<g><path style="opacity:1" fill="#050505" d="M 1331.5,1217.5 C 1354.69,1217.85 1365.52,1229.51 1364,1252.5C 1357.81,1269.85 1345.65,1276.68 1327.5,1273C 1309.52,1264.05 1304.35,1250.22 1312,1231.5C 1317.01,1224.64 1323.51,1219.97 1331.5,1217.5 Z"/></g>
<g><path style="opacity:1" fill="#fcfcfc" d="M 1223.5,1285.5 C 1209.87,1287.48 1195.87,1288.15 1181.5,1287.5C 1067.17,1287.67 952.833,1287.5 838.5,1287C 835.667,1285.5 833.5,1283.33 832,1280.5C 831.5,1261.84 831.333,1243.17 831.5,1224.5C 960.5,1224.5 1089.5,1224.5 1218.5,1224.5C 1214.99,1245.27 1216.66,1265.6 1223.5,1285.5 Z"/></g>
<g><path style="opacity:1" fill="#060606" d="M 872.5,1231.5 C 888.052,1230.56 897.885,1237.56 902,1252.5C 901.02,1274.8 889.52,1283.63 867.5,1279C 853.29,1270.03 849.79,1257.86 857,1242.5C 861.127,1237.2 866.294,1233.54 872.5,1231.5 Z"/></g>
<g><path style="opacity:1" fill="#f9f9f9" d="M 1333.5,1231.5 C 1347.33,1232.16 1352.49,1239.16 1349,1252.5C 1344.53,1259.08 1338.36,1261.25 1330.5,1259C 1322.34,1253.5 1320.5,1246.33 1325,1237.5C 1327.32,1234.6 1330.16,1232.6 1333.5,1231.5 Z"/></g>
<g><path style="opacity:1" fill="#f8f8f8" d="M 874.5,1245.5 C 884.689,1245.52 888.856,1250.52 887,1260.5C 884.081,1266.02 879.581,1267.86 873.5,1266C 867.891,1262.72 866.058,1257.89 868,1251.5C 870.063,1249.27 872.229,1247.27 874.5,1245.5 Z"/></g>
<g><path style="opacity:1" fill="#434343" d="M 1223.5,1285.5 C 1224.4,1286.21 1224.74,1287.21 1224.5,1288.5C 1209.99,1288.83 1195.66,1288.5 1181.5,1287.5C 1195.87,1288.15 1209.87,1287.48 1223.5,1285.5 Z"/></g>
<g><path style="opacity:1" fill="#bebebe" d="M 839.5,1301.5 C 908.5,1301.5 977.5,1301.5 1046.5,1301.5C 1046.83,1322.01 1046.5,1342.34 1045.5,1362.5C 1045.5,1342.5 1045.5,1322.5 1045.5,1302.5C 976.665,1302.83 907.998,1302.5 839.5,1301.5 Z"/></g>
<g><path style="opacity:1" fill="#fdfdfd" d="M 1060.5,1301.5 C 1098.5,1301.5 1136.5,1301.5 1174.5,1301.5C 1174.5,1321.83 1174.5,1342.17 1174.5,1362.5C 1136.5,1362.5 1098.5,1362.5 1060.5,1362.5C 1060.5,1342.17 1060.5,1321.83 1060.5,1301.5 Z"/></g>
<g><path style="opacity:1" fill="#bebebe" d="M 1230.5,1302.5 C 1216.83,1302.5 1203.17,1302.5 1189.5,1302.5C 1189.5,1322.5 1189.5,1342.5 1189.5,1362.5C 1188.5,1342.34 1188.17,1322.01 1188.5,1301.5C 1202.68,1301.17 1216.68,1301.5 1230.5,1302.5 Z"/></g>
<g><path style="opacity:1" fill="#fcfcfc" d="M 1038.5,1376.5 C 1091.17,1376.33 1143.83,1376.5 1196.5,1377C 1210.95,1383.69 1214.12,1393.85 1206,1407.5C 1203.44,1409.73 1200.6,1411.56 1197.5,1413C 1144.17,1413.67 1090.83,1413.67 1037.5,1413C 1025.33,1407.17 1021.83,1398 1027,1385.5C 1030.16,1381.49 1033.99,1378.49 1038.5,1376.5 Z"/></g>
<g><path style="opacity:1" fill="#ababab" d="M 246.5,1121.5 C 246.5,1217.83 246.5,1314.17 246.5,1410.5C 371.167,1410.5 495.833,1410.5 620.5,1410.5C 495.668,1411.5 370.668,1411.83 245.5,1411.5C 245.167,1314.67 245.501,1218 246.5,1121.5 Z"/></g>
</svg>
